<svg width="18" height="20" viewBox="0 0 18 20" fill="none" xmlns="http://www.w3.org/2000/svg">
    <path fill-rule="evenodd" clip-rule="evenodd" d="M16.7143 0.195051C16.4202 -0.0776016 15.9578 -0.0625747 15.6814 0.228615L9.5201 6.71889L0.667795 7.49337C0.265738 7.52854 -0.0320121 7.87918 0.00275226 8.27654L0.558665 14.6307C0.564546 14.6979 0.579928 14.7639 0.604365 14.8269C0.928039 15.6608 1.61504 16.873 2.65386 17.8669C3.69923 18.8671 5.1547 19.6928 6.98025 19.5955C10.1249 19.4278 14.9066 18.9467 16.9005 18.7278C17.3016 18.6837 17.5914 18.3266 17.5477 17.9302C17.5039 17.5337 17.1432 17.248 16.742 17.292C14.7521 17.5106 10.0051 17.9877 6.90452 18.153C5.60747 18.2221 4.52714 17.6467 3.67134 16.8279C2.84721 16.0394 2.28136 15.0686 2.00546 14.3983L1.52168 8.86864L9.92416 8.13352C10.1033 8.11785 10.2704 8.03745 10.3936 7.90772L16.7461 1.21598C17.0225 0.924788 17.0083 0.467704 16.7143 0.195051Z" fill="white"/>
</svg>
